P2
160 120
242
16 13 16 18 21 16 15 18 14 16 14 20 16 15 17 16 15 14 9 17 12 9 7 20 19 16 19 15 14 16 15 17 12 11 7 9 9 11 12 9 12 10 11 8 9 5 10 6 8 11 11 12 8 7 9 14 11 13 10 6 14 7 10 14 14 14 22 25 24 23 24 22 14 18 16 22 21 21 20 22 20 21 44 117 173 187 189 194 194 194 198 200 199 199 200 207 205 205 209 219 224 234 232 234 237 238 241 242 231 225 220 214 210 205 203 200 199 198 194 183 182 175 179 173 164 162 159 144 125 84 76 77 66 55 47 28 17 23 21 27 40 35 39 38 46 52 50 53 57 59 59 56 58 54 54 49 38 37 37 21 
12 14 13 13 18 17 15 14 16 10 11 14 14 12 17 11 12 12 13 15 9 10 11 14 15 17 20 16 15 13 14 13 12 11 5 8 9 11 7 11 9 10 10 5 7 9 10 9 9 6 8 9 9 10 10 10 11 9 8 12 15 12 10 20 14 13 14 17 14 10 18 14 18 16 16 21 24 17 21 25 30 33 89 158 180 189 188 193 190 191 195 198 198 199 205 205 208 209 212 219 224 227 228 228 229 230 235 235 225 220 221 213 211 203 202 197 199 198 191 187 176 178 170 167 158 158 155 131 83 39 37 35 30 29 25 20 22 18 18 15 25 20 28 23 27 30 29 35 30 34 31 33 33 35 32 26 22 17 22 19 
21 14 11 18 15 12 15 14 14 17 17 14 17 15 20 11 16 10 13 14 10 10 12 11 13 18 17 19 18 18 15 12 13 14 9 9 13 13 14 12 11 12 11 10 10 12 12 8 8 10 13 6 9 9 10 4 8 11 10 13 13 11 16 15 15 12 12 17 13 14 17 12 15 14 20 18 21 22 19 26 32 59 138 175 182 190 184 185 187 192 194 194 199 199 199 206 206 203 211 214 215 214 217 217 222 226 226 220 218 212 213 208 204 200 198 198 194 195 190 183 182 171 171 169 161 151 136 100 41 25 22 20 22 16 22 16 12 16 11 11 13 13 18 19 18 18 15 19 19 18 19 20 20 18 20 20 17 16 19 16 
16 12 14 11 15 8 15 10 8 11 10 17 14 12 14 7 14 12 10 12 11 7 10 7 14 12 13 17 18 14 12 7 4 6 9 8 8 12 12 8 11 6 9 9 7 10 6 7 7 11 9 5 8 6 6 7 7 6 8 11 11 8 10 16 17 6 8 11 14 14 15 13 15 15 15 15 15 20 25 25 53 122 169 178 186 188 184 184 185 188 191 191 190 195 198 203 205 203 209 209 207 211 212 214 211 216 218 211 214 210 204 205 199 199 197 197 196 194 189 181 179 168 169 164 158 140 117 60 20 22 13 19 18 16 14 12 15 13 11 8 16 14 15 12 13 13 15 11 14 15 15 14 13 16 17 18 18 10 16 12 
20 14 15 11 13 16 13 15 12 11 12 15 10 9 14 14 13 8 10 9 8 9 8 10 12 11 13 13 20 14 15 11 9 8 9 10 10 14 11 12 10 9 11 8 8 10 6 7 6 10 7 10 3 7 10 10 8 11 13 9 8 8 8 8 12 8 13 10 13 11 11 13 16 15 16 15 22 22 19 43 104 165 178 179 183 189 190 191 182 187 186 191 191 196 199 203 203 205 205 202 200 203 198 201 205 209 209 208 205 202 202 199 195 189 196 194 198 193 187 178 179 169 164 157 152 132 92 28 19 14 15 16 17 13 11 14 14 15 11 12 20 13 12 11 17 9 9 15 15 11 14 12 15 14 17 14 11 10 13 16 
18 16 18 17 18 16 17 17 8 15 12 12 14 16 16 17 15 11 9 14 13 11 11 11 14 13 12 13 18 17 13 12 10 14 11 10 12 12 9 10 11 10 10 9 11 7 10 11 14 11 16 12 7 8 8 13 7 9 11 13 9 11 10 13 12 13 13 9 13 17 19 15 14 17 22 20 22 25 38 93 156 173 180 182 182 195 196 196 199 196 193 189 192 202 201 205 200 201 198 202 198 199 199 198 202 203 201 201 204 204 200 193 194 190 195 193 197 192 192 187 183 167 163 162 147 116 60 24 20 18 12 14 14 13 13 13 15 11 13 11 17 14 10 13 17 14 12 12 12 15 12 14 14 13 14 13 14 15 16 16 
18 18 18 16 18 21 18 14 14 14 16 14 15 9 17 16 16 14 10 14 13 10 15 15 12 13 13 10 19 21 12 15 8 10 11 11 9 15 12 11 12 10 7 13 10 7 9 14 10 9 12 8 9 9 10 8 11 10 15 13 13 12 11 14 13 11 11 14 11 17 15 16 13 13 17 26 27 29 73 150 174 176 179 176 183 194 194 201 208 211 195 192 195 195 200 200 194 199 198 196 197 199 194 193 198 201 198 202 199 201 196 197 190 183 194 188 190 191 188 185 177 164 163 153 137 79 26 20 16 16 13 14 14 17 13 15 12 9 13 11 12 14 16 15 14 7 14 12 14 8 14 12 16 8 15 13 15 14 14 12 
18 16 17 13 16 9 12 14 14 12 11 14 7 10 15 13 12 12 8 12 10 11 11 11 12 10 11 8 13 16 12 16 8 8 12 11 11 11 10 9 10 8 7 12 7 10 11 11 10 12 5 7 6 7 10 7 9 8 7 10 10 7 13 13 11 12 10 12 16 15 10 14 13 15 20 25 30 47 130 171 177 178 182 181 183 187 196 201 206 209 173 191 195 203 204 197 193 199 198 202 193 195 193 194 198 198 197 196 198 200 194 196 194 186 187 192 187 190 189 185 176 171 162 152 114 38 19 20 20 18 11 18 15 16 12 16 14 9 11 11 13 15 13 8 14 14 8 13 19 15 15 11 11 13 14 13 17 11 17 11 
16 15 20 16 16 12 9 13 9 11 12 14 10 11 17 14 13 10 8 10 11 13 12 10 14 12 9 6 10 12 14 11 7 11 8 10 10 10 10 14 9 11 5 7 8 9 7 10 14 11 12 10 8 11 13 9 9 9 10 7 9 10 12 19 11 12 13 10 8 8 12 11 14 13 18 26 32 92 165 173 176 179 178 180 183 185 195 198 194 151 124 206 205 200 199 192 190 195 197 199 196 193 189 194 192 191 197 193 195 192 192 190 189 181 182 187 187 185 183 180 175 169 152 132 68 21 23 20 14 10 9 13 15 13 10 11 11 12 13 8 10 9 8 13 14 7 9 10 12 12 12 8 11 11 11 11 13 12 14 11 
19 15 14 16 14 14 12 15 15 14 15 17 12 11 13 17 12 13 13 12 12 12 10 9 15 11 11 9 12 12 11 15 11 11 13 9 8 11 12 14 10 14 7 6 9 7 7 11 12 12 9 10 7 8 17 13 11 12 12 11 12 11 10 11 12 11 11 11 13 13 13 10 14 19 16 33 63 148 173 176 177 177 182 184 182 184 189 188 166 97 165 205 204 204 196 195 187 189 194 200 199 190 186 196 191 191 192 194 195 192 193 188 183 181 184 184 186 187 184 174 167 163 142 101 34 14 15 16 15 15 14 16 11 15 12 12 11 13 9 13 16 13 13 12 11 11 11 12 11 10 16 12 9 13 12 13 14 13 12 15 
16 12 17 12 19 12 15 10 12 10 15 15 11 12 14 17 13 8 15 20 8 12 6 15 13 11 11 10 13 12 11 12 12 8 10 9 12 14 8 12 12 13 9 9 9 10 7 10 7 7 10 8 6 9 12 11 12 5 11 10 12 10 11 10 11 8 13 11 9 12 14 12 15 17 26 40 107 160 171 172 178 178 184 181 179 190 192 179 101 145 192 202 203 193 194 192 195 192 191 199 192 188 184 184 182 184 190 194 190 194 191 184 178 180 182 184 183 184 177 170 167 152 117 54 25 15 18 15 14 17 12 13 13 11 13 12 10 8 10 9 14 12 13 6 10 8 8 11 14 12 16 12 11 11 13 11 14 12 15 13 
19 13 17 16 18 18 14 12 9 15 15 14 11 13 11 12 15 11 17 14 13 7 14 9 15 11 11 11 11 16 14 10 7 10 8 11 13 7 10 9 11 9 11 13 10 6 9 9 11 8 12 13 8 8 10 11 8 8 13 11 12 12 13 13 11 10 12 10 14 19 13 20 16 25 32 78 145 169 166 173 175 181 184 186 185 193 181 115 101 177 152 141 179 192 201 200 196 200 207 197 196 194 193 186 179 184 190 194 190 189 186 185 178 176 181 182 180 179 169 163 160 132 71 25 24 13 17 16 12 14 14 14 13 10 9 12 8 11 10 9 9 14 15 12 10 7 12 10 11 10 14 12 9 11 13 16 10 11 13 15 
16 15 14 15 19 15 14 16 11 11 12 18 10 14 13 13 16 14 12 20 12 12 14 12 13 7 9 12 14 14 12 14 10 11 7 11 11 9 11 12 12 9 11 13 11 10 7 12 6 10 10 11 9 9 12 13 11 12 13 10 9 9 11 13 12 13 9 10 12 14 15 25 23 28 42 135 163 167 171 175 179 179 186 186 192 192 165 92 163 174 83 58 104 153 180 195 211 211 202 199 192 188 189 184 181 184 189 191 191 194 189 185 181 172 174 177 173 174 169 159 136 83 29 19 20 15 20 16 11 11 10 15 13 10 11 14 12 10 13 8 12 8 14 12 9 11 8 10 10 8 12 7 11 15 11 14 11 14 12 15 
18 16 14 15 16 19 15 14 14 14 12 14 15 11 16 14 14 12 12 12 11 12 8 11 12 11 12 11 14 16 13 15 9 12 9 8 9 12 13 12 10 9 8 8 10 10 9 12 8 15 10 8 11 8 11 8 7 10 9 11 7 11 10 14 11 12 9 11 11 13 20 19 19 33 84 160 161 171 170 173 177 182 186 189 193 180 87 143 184 172 80 47 48 63 99 140 197 210 194 202 197 194 190 187 180 181 187 188 184 191 184 184 176 177 173 175 170 170 157 143 97 39 20 15 16 18 16 16 14 15 11 11 10 12 11 14 10 13 13 7 13 11 12 11 12 9 11 11 12 10 14 7 6 17 15 14 15 18 15 13 
13 13 12 14 13 11 13 11 11 12 10 12 10 11 13 17 11 10 9 12 9 9 11 13 15 10 10 9 11 13 12 14 8 10 9 9 12 13 8 14 9 11 9 7 7 10 10 8 10 10 10 7 9 6 9 9 7 9 11 12 4 10 7 14 11 10 11 14 11 15 16 12 25 43 122 164 169 170 173 174 176 185 185 192 172 94 131 180 182 178 136 73 43 50 59 114 167 203 201 199 197 190 188 184 181 181 179 178 181 192 185 188 179 168 170 171 168 162 145 94 38 19 13 11 16 13 12 20 11 13 14 15 13 10 12 10 9 10 10 8 8 12 11 8 11 7 7 9 8 11 9 11 9 14 15 10 16 18 11 13 
18 14 16 14 11 8 14 13 16 12 14 11 13 11 13 12 11 10 11 14 12 4 13 11 11 8 9 10 8 11 15 12 8 8 7 7 9 14 12 9 14 7 10 8 10 6 9 7 10 5 11 10 7 9 10 7 9 10 9 9 8 8 10 15 11 11 13 11 12 15 15 17 27 84 148 168 168 172 172 176 181 182 190 172 95 107 174 180 178 179 165 119 64 49 103 171 175 195 187 193 191 189 186 184 182 173 155 115 155 182 178 176 177 171 168 163 156 143 98 33 20 23 18 15 13 9 11 14 12 13 11 14 10 12 13 9 12 9 9 11 12 13 11 12 14 11 11 13 14 12 13 10 10 9 13 11 15 10 10 13 
18 16 15 16 15 15 18 16 13 12 14 13 12 14 12 16 14 8 14 13 15 12 8 14 10 12 7 10 10 15 12 13 11 14 11 10 13 12 12 15 13 10 10 12 8 8 9 11 10 7 10 8 9 9 6 9 12 11 10 13 12 10 10 11 10 12 10 14 14 18 17 25 44 126 164 167 168 179 176 177 191 190 179 134 77 169 176 177 175 172 178 164 108 95 141 179 194 192 187 189 188 190 182 181 182 157 107 100 181 182 187 178 176 169 165 164 147 113 39 21 17 16 19 11 16 13 14 15 11 11 13 16 10 15 10 10 11 9 12 9 13 11 11 11 13 8 7 9 15 9 7 10 5 12 15 8 10 16 12 12 
19 18 13 16 12 12 16 15 10 12 14 16 13 8 16 13 16 12 12 12 11 11 14 12 11 11 10 8 12 13 13 13 7 8 10 10 10 12 12 9 12 9 9 7 6 10 11 8 9 9 9 8 10 10 10 12 10 11 7 7 11 10 10 14 12 12 8 15 15 16 22 30 88 153 161 166 164 168 175 188 189 185 126 63 133 182 176 177 169 173 174 181 163 169 180 183 188 188 180 179 180 178 173 179 168 91 80 145 187 181 179 179 173 168 163 153 121 50 16 14 17 17 14 16 12 13 14 16 13 11 13 13 9 11 8 11 14 8 8 9 10 9 9 10 12 7 11 10 9 10 8 11 7 8 11 12 12 9 10 10 
22 15 16 20 13 13 19 15 12 11 12 18 13 11 14 12 11 7 11 13 13 8 13 12 13 13 14 8 13 15 12 11 9 11 9 11 10 12 13 11 9 11 9 9 10 8 8 9 8 9 9 8 8 8 9 12 10 11 9 10 11 6 13 16 10 11 11 16 12 18 27 56 132 155 162 168 169 168 180 185 188 129 86 89 173 173 174 170 173 175 177 177 181 192 187 187 185 181 178 173 177 179 171 178 123 53 98 174 180 179 176 174 166 163 154 140 77 24 13 16 16 19 16 16 15 13 13 15 13 8 7 8 12 6 8 10 11 10 12 4 9 10 8 9 14 9 13 11 12 12 11 12 10 9 14 6 14 11 14 12 
15 14 15 15 16 13 13 14 12 10 11 13 9 12 10 13 11 12 8 13 9 10 9 10 9 6 9 9 11 15 6 13 7 8 10 8 9 7 11 9 12 9 11 8 10 9 9 6 7 12 10 9 8 9 10 7 9 9 9 7 10 8 8 11 15 12 10 14 14 19 37 99 151 156 163 165 174 176 179 181 155 64 63 143 175 175 172 172 174 174 177 189 192 205 199 186 184 181 168 172 173 177 171 154 77 67 157 187 181 177 176 169 164 157 146 102 36 21 10 16 13 19 13 18 9 13 12 13 15 9 11 9 8 10 12 8 12 12 9 5 12 9 12 10 10 10 11 10 9 13 9 8 7 8 8 11 11 11 10 11 
16 15 13 19 14 11 14 11 10 9 13 15 9 10 12 12 12 11 10 14 13 11 11 10 10 9 12 10 10 12 12 11 11 10 9 9 11 8 11 15 10 8 9 8 11 9 9 8 8 9 5 11 8 6 8 9 9 12 7 8 7 9 9 11 9 10 10 13 12 33 74 148 166 164 169 179 182 181 188 168 84 46 113 181 181 180 174 172 172 180 186 199 205 208 196 180 178 177 175 172 171 174 174 112 52 110 186 186 182 177 176 171 167 153 132 57 23 17 16 15 10 18 14 17 14 16 15 14 11 12 14 13 15 9 12 10 10 11 9 8 8 13 9 11 11 9 10 10 8 12 9 8 10 8 11 9 12 13 10 11 
20 16 18 18 13 12 16 11 11 11 15 13 12 9 11 10 12 11 16 11 10 8 11 11 11 9 9 10 14 12 10 13 12 12 10 9 11 11 11 10 10 9 10 10 10 9 10 9 9 7 13 10 9 9 6 7 12 9 9 11 12 11 9 13 11 9 13 13 26 48 124 165 165 169 172 182 184 183 179 110 44 64 159 186 181 181 175 178 177 191 196 213 204 201 189 175 172 175 170 173 170 166 147 67 67 161 190 185 183 178 169 166 160 149 92 35 23 14 15 20 14 17 13 20 11 15 17 18 13 10 13 8 13 13 13 10 11 11 11 10 8 13 11 13 12 12 8 12 10 9 9 7 9 10 9 12 12 11 11 8 
18 17 14 17 12 13 16 13 17 11 12 12 10 14 8 19 16 11 12 14 13 9 11 9 9 10 9 10 11 16 11 13 10 12 9 12 8 9 10 12 12 10 8 6 11 11 11 9 12 6 9 8 7 7 12 8 9 10 10 13 14 9 9 11 12 13 12 15 28 77 153 167 168 171 178 181 182 183 151 56 46 113 182 183 185 184 179 179 183 196 208 213 207 190 178 177 170 171 169 171 172 163 96 48 103 183 192 187 179 174 171 169 157 131 52 23 18 18 16 13 14 14 10 15 9 13 13 14 13 14 15 11 13 8 10 14 12 12 12 7 11 9 10 13 9 11 10 13 16 13 10 9 12 11 13 12 11 13 8 5 
15 15 17 18 17 15 14 15 10 14 11 12 13 10 16 15 11 10 9 9 10 9 11 15 15 10 11 10 11 11 9 14 9 14 8 10 9 13 7 13 6 9 7 7 8 6 8 10 8 8 10 10 7 9 7 7 10 8 12 11 10 11 8 7 11 12 11 22 31 109 156 169 172 178 184 187 176 167 86 36 69 149 183 179 183 181 182 182 186 203 203 205 191 184 179 168 168 169 164 169 167 129 52 69 133 191 191 193 176 171 174 165 148 89 29 18 14 15 11 12 12 13 10 12 14 15 10 14 14 12 9 13 10 8 10 11 13 11 13 10 9 10 9 12 10 10 10 12 11 12 11 11 9 10 8 10 13 9 8 8 
20 14 18 17 14 15 16 11 11 14 15 16 13 16 13 15 11 11 9 12 12 10 13 9 12 11 11 9 15 9 11 11 13 17 11 12 11 12 12 10 12 11 9 7 9 7 11 6 5 9 9 7 5 8 8 8 10 8 6 10 8 11 10 11 15 14 16 24 54 144 172 174 174 175 179 187 176 118 42 43 114 171 178 176 183 183 183 184 188 203 201 181 170 181 179 171 170 169 164 166 157 78 38 62 160 186 191 195 182 171 170 158 130 44 16 16 16 16 16 16 10 14 10 11 13 14 12 13 9 13 15 8 10 10 9 10 8 14 11 9 10 6 9 10 8 10 11 12 12 11 12 10 12 10 10 7 11 11 11 12 
18 16 14 15 18 12 11 12 10 10 12 13 8 13 14 11 10 10 11 12 8 6 9 13 14 11 13 9 8 9 10 8 10 13 7 9 10 11 7 11 10 9 6 7 13 6 6 7 6 9 7 5 5 7 8 6 10 9 8 8 10 9 8 12 12 10 11 26 88 157 166 177 175 176 175 177 141 56 35 64 151 171 177 166 180 184 183 184 199 179 196 142 169 181 176 172 171 170 166 153 112 43 41 94 179 192 192 188 181 170 165 146 87 22 16 19 16 16 11 11 10 17 11 12 10 9 8 12 12 12 8 7 10 7 11 7 9 12 10 10 11 9 9 10 10 6 9 9 11 13 8 14 13 10 9 8 11 10 11 11 
16 17 17 15 17 12 13 14 13 10 11 10 10 11 12 12 12 11 9 12 10 9 10 13 11 10 9 8 12 10 11 13 8 11 9 11 7 12 8 10 11 10 8 8 7 8 6 8 8 7 12 9 5 5 8 8 10 6 8 7 10 8 9 12 14 12 23 37 132 165 166 171 172 176 166 157 75 35 40 107 172 171 176 174 182 183 184 190 186 177 140 183 176 172 176 175 170 169 158 132 57 32 49 135 186 189 192 183 177 171 160 124 49 19 12 16 15 16 11 10 10 13 12 12 9 13 15 9 10 12 9 5 10 11 13 8 10 9 11 8 11 10 10 8 9 10 11 8 12 11 10 12 11 9 8 12 12 9 8 15 
15 18 19 19 16 14 14 12 10 9 12 10 10 15 10 11 14 12 13 6 8 10 10 11 12 9 10 9 10 14 10 12 7 12 8 8 7 12 7 13 13 9 9 5 6 7 10 10 7 6 7 9 7 6 7 7 9 7 8 5 10 13 11 11 14 12 19 53 140 165 169 171 171 167 156 105 32 32 54 141 167 169 171 177 175 184 187 181 128 162 179 178 180 166 170 171 169 165 137 70 33 39 73 167 184 175 190 178 176 168 141 67 23 16 11 15 16 14 14 7 11 14 12 13 10 12 7 12 9 14 9 8 11 10 10 8 9 8 8 9 13 13 11 10 10 6 10 7 8 13 8 9 12 12 10 10 14 11 12 12 
16 20 18 19 16 13 18 12 15 10 10 11 11 11 15 13 12 12 7 12 10 12 14 8 12 11 10 12 9 12 12 11 11 10 7 8 10 13 6 10 13 9 12 10 8 6 10 10 4 7 10 6 6 7 11 8 8 8 10 8 14 11 13 16 15 9 16 52 150 163 172 173 170 158 125 50 27 34 93 165 170 173 172 179 181 186 181 148 138 172 177 178 161 158 166 163 159 151 86 31 30 39 116 182 183 181 176 178 169 157 95 29 17 15 10 18 13 14 10 12 13 12 11 14 12 12 8 9 12 12 11 13 8 9 12 8 10 11 10 9 11 9 10 9 14 9 13 8 10 11 9 10 11 11 13 7 9 14 8 14 
16 12 18 20 18 17 14 14 16 13 14 16 15 12 16 11 16 13 13 11 10 7 12 12 13 11 12 7 12 15 12 10 8 10 10 8 8 8 10 5 15 10 12 10 7 6 8 8 6 6 6 8 9 7 8 11 4 9 7 7 11 10 10 15 15 13 17 38 124 168 169 170 163 141 70 28 26 56 138 171 176 165 170 179 179 190 166 98 144 181 173 167 162 163 160 161 151 107 40 28 33 70 158 188 184 189 172 175 151 125 50 18 16 11 9 13 12 12 10 10 10 13 10 10 9 14 10 13 13 13 8 11 13 10 11 7 7 10 10 5 6 11 9 12 12 9 15 9 9 8 9 8 10 10 10 9 13 12 8 10 
11 9 11 9 19 12 13 15 14 12 12 20 17 12 13 14 12 14 13 12 12 12 15 14 12 11 14 8 13 15 15 13 9 8 14 11 8 15 10 13 13 13 11 12 9 9 9 10 10 8 7 7 8 6 8 8 8 5 7 9 9 7 10 7 14 8 14 27 89 154 155 164 146 89 23 26 30 90 169 172 179 172 170 180 186 178 109 139 173 178 172 164 162 165 161 152 115 47 19 25 44 125 182 190 187 176 166 163 140 75 26 16 14 11 9 13 15 14 12 6 13 10 11 10 8 11 13 11 10 11 7 9 9 8 9 10 5 9 9 12 7 10 11 9 12 7 9 8 11 8 11 9 9 8 7 9 11 10 11 9 
11 9 11 10 11 13 15 13 9 9 9 8 7 7 9 10 7 7 10 8 5 7 7 9 10 7 7 7 4 8 9 6 2 5 6 3 4 7 6 8 10 5 6 7 7 6 6 7 11 8 9 6 6 8 8 11 7 6 6 9 12 11 9 12 11 13 12 15 30 73 118 120 76 34 17 24 42 129 171 179 178 176 178 180 185 130 89 159 173 173 176 168 157 160 151 126 54 26 22 35 88 168 185 191 183 178 166 153 108 35 22 16 13 12 11 12 16 12 12 4 13 14 12 8 8 12 10 10 11 15 11 11 10 10 8 9 9 9 11 7 7 9 8 14 9 8 12 8 7 9 5 7 6 8 10 12 11 12 10 8 
14 12 10 10 12 9 14 11 15 11 9 8 8 11 7 7 10 10 10 9 6 7 6 7 9 9 7 10 10 7 8 7 6 6 6 5 5 8 5 8 7 2 6 3 7 4 2 4 5 1 2 3 1 3 4 3 5 4 2 4 4 6 6 5 6 4 10 12 15 17 27 29 15 17 15 28 70 163 183 185 193 194 194 184 150 85 134 186 177 176 166 163 155 153 134 73 26 25 24 54 138 184 190 186 186 175 165 138 55 21 15 11 14 11 12 12 11 10 13 6 9 14 11 13 15 10 12 12 9 9 5 12 11 7 8 7 9 9 10 7 8 7 6 10 9 8 7 7 9 10 11 7 7 11 6 9 9 8 8 9 
14 13 13 11 12 6 15 12 14 10 10 10 12 13 14 13 14 13 14 6 9 10 8 8 13 12 9 10 8 11 10 12 6 6 11 8 9 9 6 8 13 10 8 7 7 7 7 6 4 8 8 6 7 3 7 7 8 6 9 7 8 9 11 10 5 8 9 10 5 11 9 15 13 17 13 38 105 168 175 184 185 185 194 167 94 124 176 191 186 183 173 172 156 142 88 31 22 30 33 105 181 198 198 191 189 176 158 90 30 22 15 15 13 11 12 11 15 14 10 11 8 11 13 11 10 11 8 11 12 11 5 11 9 13 6 9 11 10 13 7 8 9 8 10 7 11 12 10 12 9 11 10 6 8 10 8 10 11 10 9 
17 15 9 14 13 9 13 16 14 8 11 12 9 10 16 13 13 9 11 12 12 9 13 15 12 9 9 9 13 10 8 10 6 8 9 11 7 7 10 9 6 14 9 7 10 6 6 9 6 8 9 9 7 6 7 8 7 6 5 7 8 8 6 10 6 11 9 6 7 10 7 15 8 9 14 46 127 167 167 176 182 179 169 111 83 153 169 177 171 164 157 153 135 90 33 17 18 31 53 149 192 198 192 198 187 171 132 47 18 13 10 15 15 7 10 16 14 13 8 10 10 11 12 9 11 12 11 10 11 14 10 11 12 9 8 8 8 8 11 11 10 12 8 12 14 11 7 11 10 14 7 12 9 9 10 8 8 12 7 16 
16 15 22 13 12 4 21 13 16 10 10 13 11 11 15 15 15 11 10 11 11 13 12 10 9 11 7 10 10 10 8 9 7 9 10 10 10 10 10 10 11 11 7 6 10 7 7 8 6 13 9 6 7 2 5 8 10 8 9 7 8 7 6 8 8 13 7 11 8 9 9 12 12 9 20 46 132 160 178 174 181 170 142 84 119 172 168 173 171 163 155 145 103 39 23 18 23 36 95 166 183 182 180 180 170 143 73 25 18 17 16 15 12 13 12 16 15 14 9 8 11 10 10 9 12 10 12 11 11 15 9 15 11 10 11 12 8 10 9 10 12 9 6 8 9 9 9 8 11 12 9 12 5 10 13 9 9 9 11 12 
17 14 17 18 12 8 17 13 14 14 10 14 13 9 13 14 10 12 8 10 14 8 12 11 11 12 11 10 9 11 10 9 6 10 8 12 8 12 9 10 10 11 10 8 6 9 7 7 7 11 6 7 8 6 5 7 8 8 7 7 8 7 7 11 6 11 4 9 11 8 10 10 7 8 13 38 106 164 168 171 178 156 88 101 159 164 166 169 164 160 142 117 47 18 22 20 24 48 126 170 175 177 176 172 153 94 34 22 21 13 16 17 16 14 14 9 15 11 11 9 14 14 9 14 12 12 11 12 13 14 11 14 9 8 5 9 8 9 6 4 8 12 8 10 11 7 10 8 11 12 11 11 10 10 13 8 12 11 10 11 
13 15 13 16 13 9 16 13 15 9 10 11 14 10 12 12 13 11 13 11 9 6 10 7 11 8 10 8 7 15 10 10 8 7 9 11 9 10 9 9 8 9 8 4 6 6 7 11 8 7 4 10 5 8 8 7 5 7 6 5 6 6 5 8 7 9 7 7 9 8 3 9 9 8 11 20 55 130 159 162 155 103 55 95 159 167 168 163 164 154 129 64 20 15 16 16 16 46 119 158 172 170 171 159 118 38 21 16 14 12 9 15 13 8 18 13 10 10 12 8 12 10 9 12 10 13 12 13 11 12 9 10 9 10 9 11 9 11 8 10 8 8 7 0 5 6 4 7 9 10 8 9 6 11 11 6 8 8 9 9 
14 15 17 14 12 10 16 12 14 9 10 13 13 7 8 10 13 12 10 10 6 10 12 9 13 9 5 7 11 10 8 10 6 8 9 10 7 8 10 7 10 6 8 7 7 6 7 9 7 8 5 5 6 4 7 9 6 5 5 6 6 9 6 8 8 10 3 6 8 9 9 7 8 11 10 13 22 56 96 110 90 39 37 107 150 162 163 163 153 134 74 27 15 13 14 17 18 35 87 147 168 163 160 123 49 17 14 13 9 9 12 11 9 9 12 13 8 13 9 6 8 11 11 9 9 12 13 8 13 10 7 13 5 10 8 10 10 13 7 7 9 14 8 9 11 6 9 11 10 10 8 10 6 7 6 2 6 11 8 9 
14 12 20 16 13 17 15 15 12 12 9 13 16 12 8 14 8 13 11 13 11 11 7 11 12 6 12 10 12 11 8 11 12 8 9 10 6 8 10 6 8 10 8 7 7 6 5 10 5 6 6 7 4 4 7 8 4 8 11 7 5 8 10 12 10 9 8 12 8 10 6 6 8 8 12 11 10 21 20 28 22 17 24 63 130 153 155 154 140 89 29 18 12 14 14 16 15 23 34 89 126 127 100 50 20 15 14 16 12 12 14 12 17 10 11 15 10 14 9 7 11 8 10 12 6 10 9 9 9 14 6 9 9 7 4 7 12 10 12 6 11 12 9 11 13 8 6 12 11 12 10 7 11 8 10 6 15 12 12 9 
17 14 17 13 10 14 15 12 12 9 11 9 9 8 8 14 11 8 11 13 9 11 9 6 8 14 9 8 6 13 9 10 9 8 7 10 6 11 9 14 8 7 10 7 7 7 6 5 6 9 8 5 7 5 7 9 7 7 6 6 7 8 10 10 8 9 8 5 10 7 7 8 11 13 8 9 12 14 9 14 12 12 12 21 65 117 131 124 81 33 14 15 10 12 13 16 9 15 17 24 39 37 30 18 14 10 8 17 16 13 14 14 8 11 9 12 10 17 11 6 12 12 11 11 9 8 8 7 10 4 9 13 9 7 7 9 10 9 9 6 11 10 11 9 7 6 10 9 7 11 8 9 9 9 11 8 12 13 9 10 
15 13 14 13 16 17 12 15 14 11 12 10 9 6 11 11 11 11 9 10 5 13 10 9 11 9 9 8 9 8 8 8 6 9 9 7 7 8 10 10 6 7 6 3 6 6 8 8 7 6 5 4 5 7 6 5 5 6 7 7 6 6 5 8 9 7 10 6 9 7 5 4 4 10 8 8 14 9 15 9 9 9 12 12 13 29 43 36 20 16 10 12 3 8 10 13 12 11 11 12 14 17 16 15 14 17 13 5 14 10 13 12 8 12 8 11 10 10 10 8 8 11 11 12 5 11 7 12 14 11 8 9 7 7 8 8 7 7 8 7 8 8 11 9 10 7 6 10 9 7 9 8 10 11 10 10 11 11 7 12 
17 12 17 14 11 18 12 17 16 10 10 12 10 11 11 11 15 11 11 13 9 11 9 11 10 9 11 8 10 12 11 10 7 13 8 9 6 11 11 10 10 8 11 7 7 7 9 8 8 5 7 4 8 4 7 5 6 6 7 6 9 7 8 6 7 8 5 9 7 8 7 7 7 7 9 15 10 10 7 7 10 10 11 7 12 14 13 10 11 11 12 11 6 9 9 10 12 8 8 10 12 15 14 12 16 9 11 11 10 11 11 12 11 13 5 9 13 12 9 9 9 10 9 8 10 7 7 8 7 6 6 8 11 7 4 3 5 9 10 5 10 11 10 9 10 6 9 11 7 8 7 6 9 10 10 7 9 8 5 8 
14 14 12 11 12 16 13 14 14 6 9 11 8 10 12 10 9 10 5 11 9 11 14 12 10 9 8 8 5 10 9 11 8 10 7 9 6 10 7 8 7 7 9 5 7 8 6 6 7 3 7 5 5 1 4 5 6 4 7 6 4 6 6 7 7 6 2 6 7 6 7 1 5 5 8 8 12 10 9 10 5 5 7 7 5 12 9 13 7 8 10 8 6 14 11 11 11 6 10 8 11 11 10 11 11 10 8 10 8 8 9 9 8 3 6 4 7 5 8 6 9 6 8 7 6 7 9 8 7 8 7 7 7 9 8 5 5 9 9 5 8 8 9 6 9 6 5 8 6 8 11 6 4 5 4 8 8 6 9 8 
13 12 16 10 14 20 9 11 9 10 11 15 9 5 13 10 7 13 9 9 10 11 8 8 10 10 8 7 9 12 11 10 10 9 8 10 7 8 8 7 10 8 7 4 5 5 8 7 6 3 6 2 3 5 7 4 4 7 7 6 4 5 5 5 5 6 3 6 8 4 7 6 7 8 10 8 11 10 7 9 14 11 12 3 7 12 8 13 9 7 12 7 10 11 13 9 10 10 7 11 8 18 12 11 13 10 6 14 8 11 10 9 15 9 10 9 9 9 8 7 11 11 6 10 4 8 10 10 7 8 6 9 8 8 5 4 7 7 7 7 7 11 10 7 12 8 7 8 7 6 7 7 3 9 7 8 8 10 10 7 
16 16 11 14 15 19 15 16 14 14 13 17 9 8 14 12 13 8 11 16 9 12 12 12 13 9 11 8 10 11 11 11 7 12 7 11 8 10 8 8 11 10 6 6 8 9 6 8 9 5 7 8 6 4 8 6 10 8 6 10 6 7 6 7 8 4 9 7 9 10 6 6 8 8 7 9 9 7 11 9 11 11 15 15 12 11 10 12 10 8 12 8 13 13 14 15 11 10 8 8 11 8 11 10 9 8 8 10 10 9 8 12 12 7 9 13 9 9 8 9 9 11 9 9 7 10 9 6 8 6 8 6 7 6 9 10 10 9 9 9 7 9 11 9 11 8 7 7 9 10 9 8 4 8 9 11 10 11 11 6 
17 15 18 8 14 18 12 12 14 7 14 15 13 8 14 12 12 14 6 12 9 11 13 7 13 9 9 7 10 9 9 11 9 10 10 10 11 8 9 11 13 12 8 12 7 8 6 8 7 8 6 8 7 5 7 8 8 8 11 9 7 4 9 7 10 6 6 6 10 12 8 7 6 8 7 6 10 10 12 12 9 9 9 7 10 12 10 10 9 8 10 9 9 11 15 15 10 14 7 10 8 19 11 11 12 13 9 13 11 8 11 10 11 10 8 10 10 7 10 9 7 10 6 6 8 10 11 6 10 10 9 8 12 7 8 7 7 10 9 11 12 9 10 10 8 9 7 8 10 8 5 5 8 9 11 10 10 10 12 8 
15 12 13 8 20 15 11 15 13 8 8 13 11 9 12 11 16 15 11 12 10 10 10 6 8 12 10 11 10 9 11 9 8 9 6 9 8 6 9 11 8 9 9 9 9 9 8 11 6 8 8 8 8 5 6 7 6 8 6 7 7 7 7 8 8 7 9 6 10 8 7 4 9 10 6 7 9 9 8 10 11 8 8 6 8 11 9 9 10 6 9 6 12 9 9 11 9 10 7 9 7 9 9 8 9 9 10 10 11 8 11 12 10 8 12 11 13 6 8 5 9 6 6 9 6 8 8 9 8 10 7 9 9 4 6 5 7 9 6 7 11 12 10 9 6 7 6 9 9 10 10 6 10 7 10 7 11 10 9 9 
15 13 9 9 19 13 14 14 11 9 11 13 10 12 13 10 13 9 10 12 7 10 11 7 11 9 8 8 7 12 12 9 8 11 7 10 11 9 11 7 7 5 10 6 8 4 6 7 5 6 7 7 7 9 9 7 4 8 9 6 5 5 4 9 8 7 5 10 7 6 6 5 9 10 7 10 10 6 10 8 8 7 7 11 6 9 8 7 9 4 14 9 9 9 11 8 11 8 11 12 8 12 7 11 11 10 10 9 9 8 11 9 11 6 10 9 11 8 8 4 8 9 8 6 6 6 12 8 9 8 9 8 5 8 5 6 7 7 9 7 7 9 10 8 11 9 8 5 11 10 9 9 7 9 6 10 8 11 9 11 
12 11 14 9 21 11 14 16 14 10 12 14 10 9 11 14 12 9 10 8 10 11 11 9 11 10 11 11 14 13 13 9 9 9 7 8 9 11 13 9 7 7 9 9 9 7 7 5 6 6 10 8 8 5 6 4 6 11 7 6 7 6 7 8 7 8 6 6 4 7 5 7 9 8 7 10 8 8 8 8 14 9 10 5 6 9 7 8 10 5 8 5 10 11 11 8 8 10 8 6 4 12 8 7 10 9 10 10 12 7 10 7 12 9 7 8 8 8 7 1 11 8 9 7 6 9 9 10 5 8 6 8 8 7 6 8 6 4 5 8 7 8 13 7 10 7 7 6 9 8 7 5 7 5 11 5 11 7 10 11 
19 10 12 8 16 12 15 12 13 13 17 15 10 10 13 11 10 11 9 12 13 8 12 12 11 9 9 9 10 6 9 11 8 10 8 9 8 9 10 7 9 10 7 9 9 7 7 9 6 11 8 6 7 6 8 8 2 8 6 8 5 4 6 9 8 8 7 5 5 8 5 6 8 6 5 10 10 9 9 7 6 7 10 9 5 11 6 10 4 7 7 6 7 5 10 8 8 11 7 9 7 13 10 9 9 12 7 8 9 7 11 10 11 8 9 8 9 9 9 7 9 7 5 9 8 8 9 12 8 8 10 7 6 8 7 7 7 7 10 7 8 12 9 11 10 5 8 5 11 10 8 8 9 7 6 6 10 12 6 11 
15 15 11 14 21 15 15 11 13 12 15 12 10 10 10 11 11 9 9 9 11 10 10 7 11 11 9 9 9 7 11 9 9 9 8 6 8 9 9 7 5 8 8 8 9 3 5 7 4 7 8 9 6 7 8 9 7 9 6 8 8 7 13 6 6 7 5 7 5 6 6 7 8 5 8 9 9 10 8 12 10 8 9 6 7 11 5 10 7 6 6 6 6 7 11 9 11 9 9 7 8 15 9 8 7 8 8 6 9 7 12 10 12 6 10 9 12 9 8 6 8 8 8 8 8 9 8 9 8 10 7 8 12 10 5 7 8 7 8 7 9 9 12 11 12 10 7 8 8 9 5 7 8 11 11 5 7 9 9 8 
15 10 9 14 19 15 15 11 11 11 7 11 8 7 12 12 10 12 9 9 9 6 7 9 11 12 7 9 10 11 8 7 10 9 7 9 7 8 10 10 8 8 10 8 6 5 8 7 7 6 9 5 5 3 6 8 6 4 7 6 8 7 9 6 10 7 7 4 5 4 3 7 6 6 5 6 8 10 7 5 9 9 9 8 6 9 5 9 8 2 7 7 7 9 8 9 11 8 7 6 8 8 9 9 8 5 10 6 11 5 7 7 9 7 9 7 7 12 9 11 8 12 11 8 5 5 10 9 6 9 7 7 5 5 5 6 6 9 7 8 11 8 4 10 6 5 7 11 5 7 8 7 6 8 8 7 9 9 9 7 
12 13 11 14 18 14 14 12 12 10 9 12 10 10 13 14 15 12 11 10 9 10 10 7 11 10 8 8 11 10 10 11 9 11 9 12 7 9 11 8 7 11 9 8 9 8 7 9 11 5 7 5 5 6 8 8 7 7 6 6 8 9 10 12 10 9 6 7 7 4 9 8 7 8 6 8 11 9 6 9 8 8 4 5 7 9 4 7 7 5 7 7 8 11 11 7 7 8 7 8 9 7 9 11 8 7 8 9 10 9 9 7 10 7 11 6 9 11 10 7 8 7 6 4 3 4 9 10 7 12 7 11 6 8 8 6 5 9 13 7 7 10 8 9 9 7 10 6 7 11 9 4 7 7 10 9 8 7 13 4 
13 10 10 13 13 14 12 11 11 6 13 13 9 8 8 11 12 9 8 13 10 4 7 8 8 9 10 8 10 10 10 11 7 8 10 9 5 9 8 7 7 5 8 4 6 6 4 6 7 8 9 7 6 4 4 8 5 8 6 8 8 6 8 8 8 7 4 6 3 1 9 4 10 5 6 5 9 10 8 9 5 8 6 5 4 9 5 11 7 6 3 8 5 9 12 9 7 11 5 7 6 10 10 6 13 8 7 9 8 7 9 5 9 6 11 7 9 7 6 3 8 8 8 4 6 9 10 7 5 10 8 12 8 10 5 6 6 6 12 7 12 9 9 9 9 9 7 5 8 8 6 5 7 10 11 7 9 9 10 9 
16 11 11 17 17 13 12 13 15 9 13 16 11 9 11 15 12 12 10 10 12 12 11 11 10 12 9 9 8 10 10 13 11 8 7 10 7 9 11 5 11 10 6 10 8 6 6 8 5 8 10 4 9 9 9 10 7 5 5 6 8 9 9 10 7 8 4 8 8 8 8 6 7 7 7 9 7 8 9 8 6 9 6 7 7 8 5 7 4 7 4 9 6 7 11 8 8 6 7 5 9 10 9 7 9 8 10 9 9 6 9 6 13 6 10 7 11 6 6 8 6 6 5 4 8 11 9 10 10 8 7 8 10 6 8 9 8 8 8 6 10 7 7 10 9 7 10 5 9 9 9 7 10 11 7 5 10 7 9 7 
19 8 10 16 13 16 14 11 13 7 11 13 8 12 11 13 12 13 11 12 12 11 9 12 12 9 13 9 8 10 9 12 7 12 11 6 10 9 10 6 9 10 9 8 9 9 6 4 10 6 3 8 10 5 5 7 10 7 11 6 6 8 7 10 8 8 7 8 7 7 7 3 5 6 7 10 9 9 11 10 7 5 8 5 6 7 2 9 6 6 6 9 5 6 8 9 8 11 8 6 7 8 9 7 9 9 9 5 7 10 10 9 9 10 8 7 11 6 6 9 5 7 7 8 8 8 7 9 4 12 7 6 10 6 7 8 7 4 10 5 10 10 7 8 9 8 9 9 11 10 8 9 7 10 9 9 8 9 8 5 
15 8 12 19 20 16 14 12 11 5 11 9 11 11 12 13 12 13 10 12 11 12 8 11 9 9 10 8 8 10 13 11 5 7 11 10 8 9 7 6 7 8 4 6 8 7 9 4 5 6 6 5 8 6 8 11 7 8 7 5 5 5 5 7 5 4 7 7 6 7 8 5 3 6 5 7 6 7 7 7 10 6 9 5 9 8 5 6 6 5 5 10 7 6 8 9 8 8 8 7 9 5 8 10 7 8 8 5 8 7 10 15 7 8 10 8 12 4 5 4 7 9 6 6 6 8 9 11 10 9 8 9 7 5 5 4 7 5 7 5 9 12 9 9 9 9 10 9 12 9 10 8 7 8 6 8 9 8 10 10 
19 9 16 18 17 14 14 16 13 11 16 17 9 11 13 15 14 11 8 11 13 10 13 10 9 10 11 12 11 11 9 11 12 8 10 11 9 11 8 5 8 10 8 8 11 5 6 8 8 9 7 7 6 7 6 11 6 10 6 6 4 11 9 7 7 6 5 7 9 8 5 5 4 7 8 11 7 8 7 9 8 6 4 7 9 9 5 9 11 6 4 8 8 8 9 8 10 9 13 7 10 8 9 6 7 7 7 6 4 7 8 8 8 7 11 8 7 6 4 6 8 8 9 6 5 7 11 9 10 9 6 9 10 5 4 9 8 11 10 10 8 8 11 9 11 9 6 9 11 10 12 9 9 8 9 8 8 12 9 7 
11 9 10 15 17 15 14 14 10 9 10 11 12 13 11 13 11 11 10 13 11 14 10 8 8 7 11 8 10 11 9 9 10 10 6 7 5 9 10 11 10 6 11 8 8 5 5 8 6 5 8 7 6 4 5 6 7 7 5 8 7 8 7 9 6 8 6 7 9 8 7 7 6 9 5 9 7 8 8 7 9 5 9 6 7 6 4 8 6 6 5 3 8 6 7 6 6 8 3 5 9 10 9 7 9 6 7 7 7 5 10 8 10 8 9 5 11 10 4 6 7 5 8 7 6 9 10 8 6 9 7 12 9 9 7 5 5 9 7 9 9 10 8 7 8 10 7 10 7 9 9 9 7 13 9 9 9 7 9 8 
15 7 15 13 12 13 9 14 12 10 14 12 8 9 10 10 12 9 9 13 9 12 8 12 11 12 12 9 9 9 11 8 8 12 6 12 6 6 9 9 10 7 10 9 5 5 5 5 8 7 5 6 7 5 6 8 6 4 7 5 9 9 5 7 11 4 7 7 3 11 7 8 7 5 7 6 4 4 8 5 6 6 6 1 6 5 5 6 6 2 4 6 3 5 9 9 5 9 6 9 6 9 8 8 7 6 9 7 6 7 9 7 12 10 12 8 8 8 3 8 5 9 6 6 8 8 10 8 6 6 6 6 11 10 6 7 9 7 7 6 10 9 9 7 9 9 9 7 7 9 9 9 10 10 9 8 8 9 10 7 
13 10 13 14 19 15 12 20 14 15 17 15 13 7 10 13 10 11 8 12 8 11 12 10 9 10 10 7 12 9 8 11 10 12 10 12 12 9 7 7 10 7 9 12 9 8 7 8 9 4 10 8 5 5 10 8 8 9 9 8 7 8 7 5 12 11 10 8 7 7 4 7 6 9 7 6 6 6 6 8 7 4 6 3 5 6 4 5 6 4 6 3 7 9 8 8 7 13 8 7 7 8 13 7 4 6 9 7 7 6 9 7 7 3 4 6 10 9 7 3 6 5 4 8 6 8 5 7 8 7 7 9 10 7 8 10 6 9 8 6 7 8 12 10 11 9 9 6 9 8 10 8 7 8 10 9 10 6 10 13 
14 9 15 12 14 14 9 10 11 10 6 10 12 10 8 8 12 9 10 12 10 9 8 9 12 8 8 9 9 10 10 9 8 12 10 10 5 6 12 14 11 9 9 6 9 3 8 4 10 8 9 6 8 9 11 7 10 7 7 8 7 8 7 9 6 6 3 7 7 8 5 7 10 6 6 5 7 6 10 8 5 6 4 5 7 6 7 6 5 3 3 4 8 8 7 10 6 12 6 8 6 8 7 7 7 10 5 10 7 5 7 5 8 9 6 9 9 9 4 4 5 7 7 7 8 10 10 7 6 7 5 10 9 7 6 7 9 9 8 9 10 8 9 8 12 10 7 7 5 9 7 7 10 12 8 10 10 5 9 9 
11 12 15 10 12 15 14 13 11 12 12 12 13 9 11 7 11 11 12 13 8 8 9 14 16 10 8 7 11 11 9 12 9 9 7 9 7 3 9 9 11 12 6 7 9 9 7 7 7 8 8 6 8 9 9 8 5 5 6 6 7 10 8 7 10 7 9 7 10 6 7 8 8 7 7 8 10 7 4 8 11 7 7 5 6 8 7 6 7 6 8 7 6 9 9 10 12 4 11 6 7 8 7 5 6 6 9 7 8 6 7 7 9 9 8 10 7 7 6 3 7 7 9 11 7 8 8 7 7 8 6 11 8 5 5 4 6 7 7 8 8 10 9 7 10 11 7 4 7 9 8 7 9 7 9 9 13 6 7 10 
18 9 15 12 16 12 12 13 16 12 10 10 11 9 9 9 10 11 10 11 8 9 10 9 12 12 9 11 9 8 12 10 10 11 7 8 12 6 11 8 12 8 8 9 4 6 6 8 9 6 8 8 7 7 10 10 8 4 8 9 6 9 9 8 10 10 9 7 6 4 5 4 8 5 7 8 8 8 10 7 5 9 7 5 6 9 8 6 8 5 7 7 8 7 6 7 8 7 10 6 3 8 10 7 6 2 8 8 6 4 8 8 9 8 5 8 6 10 5 2 7 10 7 8 7 7 8 4 8 9 7 6 8 8 8 5 7 8 8 10 7 9 8 10 10 6 6 9 9 6 7 3 4 8 5 8 9 6 10 9 
10 14 14 13 16 17 13 11 14 11 10 11 13 8 11 9 12 8 7 11 9 8 9 9 11 11 8 12 10 11 11 10 8 13 11 8 6 6 9 8 8 8 9 6 8 6 7 7 8 7 7 8 6 4 8 8 2 6 6 4 9 7 9 6 8 7 5 3 3 9 6 6 8 4 6 7 5 5 7 4 6 3 7 5 2 4 5 3 5 6 5 6 5 9 8 12 10 7 9 5 4 5 7 6 8 3 5 3 8 7 6 6 4 6 9 7 8 5 7 4 7 5 5 4 7 8 7 4 7 10 7 8 6 7 6 6 7 8 7 6 8 9 10 8 8 9 4 8 6 6 6 7 6 9 6 4 9 6 11 12 
13 14 17 14 14 11 14 14 10 10 13 11 12 8 10 11 12 14 10 13 8 9 8 13 12 8 10 12 10 7 9 11 10 8 7 11 8 9 11 10 8 6 9 10 7 7 10 7 8 6 7 4 7 6 7 7 6 7 6 6 7 6 11 7 11 7 5 4 3 8 5 3 8 6 5 6 6 7 4 5 6 5 7 5 5 7 6 5 6 4 8 6 10 6 5 6 13 7 10 6 3 10 8 6 9 10 7 7 8 5 8 5 6 6 7 8 9 10 4 7 8 7 6 8 9 8 9 8 10 10 8 10 10 7 9 7 6 8 7 5 9 8 10 9 8 8 8 8 8 7 9 8 9 12 10 8 8 11 7 14 
13 12 17 13 14 16 9 15 13 11 13 15 13 11 12 14 13 14 13 11 12 9 7 9 8 10 11 13 13 10 13 11 8 8 7 12 8 13 9 10 8 5 10 8 9 10 4 8 5 8 5 8 8 7 9 7 8 7 7 8 7 8 7 6 7 5 7 5 7 5 6 7 7 5 3 5 4 6 8 7 8 4 8 6 6 5 7 5 9 5 8 5 10 6 7 6 10 8 8 6 7 8 8 8 7 9 7 6 7 5 6 10 6 8 8 8 5 5 7 7 7 9 6 8 7 6 8 7 11 11 8 8 9 6 7 3 4 8 10 5 5 8 10 11 11 7 4 7 9 9 8 8 9 9 9 7 12 8 9 12 
13 13 19 14 14 11 11 10 9 9 14 14 14 9 8 14 14 12 9 15 9 7 8 11 9 8 9 9 9 10 11 11 7 9 12 9 11 8 10 9 8 9 5 9 6 9 9 6 6 8 9 8 8 8 7 7 5 4 8 10 5 10 9 8 8 6 5 5 4 6 6 5 6 5 5 3 9 7 5 3 7 6 5 2 3 5 8 6 5 3 7 7 4 7 3 7 9 7 5 2 7 9 6 5 6 7 4 5 5 8 11 7 11 6 5 7 4 5 6 4 9 9 10 8 5 9 6 7 9 8 9 3 8 7 8 6 9 5 7 7 6 10 11 10 12 7 6 7 7 7 4 7 11 3 10 9 10 8 9 9 
13 14 18 17 13 13 18 9 12 12 12 18 12 9 10 10 12 14 11 8 10 7 11 10 9 8 11 12 10 8 5 11 7 11 7 9 9 8 7 7 9 8 6 14 9 7 7 8 7 11 11 7 7 8 9 11 7 8 8 5 12 11 9 8 6 5 8 8 6 7 6 7 9 5 7 7 8 8 7 9 6 3 8 6 7 8 6 9 5 8 4 3 9 13 5 10 8 5 7 8 4 9 4 7 9 6 4 5 4 5 9 8 4 4 7 5 6 7 5 8 7 9 8 7 7 11 11 8 9 10 3 7 8 7 5 8 5 7 8 7 8 10 10 12 9 10 8 7 6 9 6 7 11 9 13 9 9 11 9 10 
13 18 18 17 17 17 13 8 10 10 13 13 12 8 10 9 13 12 13 10 8 11 7 10 12 12 9 9 8 11 9 12 10 11 12 10 9 8 8 8 9 8 6 6 9 7 9 6 9 8 9 8 8 6 8 6 7 6 5 8 6 6 9 9 9 6 7 8 4 7 7 5 8 7 6 7 7 5 7 4 8 5 4 4 3 6 5 5 5 8 8 7 4 5 8 9 10 4 9 2 11 11 7 5 5 9 4 7 7 3 8 4 6 8 8 7 4 9 3 6 5 6 6 8 6 11 7 9 12 5 11 9 8 7 4 6 10 10 6 9 8 9 8 5 12 5 3 8 10 8 8 5 6 10 7 9 11 12 8 6 
10 13 16 16 17 11 12 12 10 9 12 9 11 12 10 12 12 11 10 13 7 11 13 11 9 10 9 12 7 9 9 11 11 12 7 10 7 9 10 9 8 9 7 9 7 6 8 5 7 10 10 8 8 7 7 5 4 9 7 8 5 3 6 7 9 6 4 7 7 9 6 4 3 7 5 4 8 7 4 5 5 5 3 4 9 6 1 3 5 3 5 8 7 7 6 6 6 7 3 2 10 7 6 5 6 5 6 7 7 3 5 6 5 7 7 5 6 8 3 10 10 7 7 9 6 7 7 8 9 7 7 2 8 3 5 7 8 7 5 8 10 8 8 10 13 9 6 7 6 7 6 6 5 9 10 10 7 7 7 5 
13 17 10 17 13 12 12 10 13 9 12 11 14 13 13 11 9 12 12 12 11 13 9 11 11 12 10 9 9 11 9 10 6 11 8 10 7 8 9 10 9 10 9 8 8 8 8 8 6 9 12 8 5 6 5 7 5 9 11 10 8 6 7 5 8 8 6 8 6 8 7 4 7 7 10 4 6 5 3 6 9 3 5 5 3 7 6 6 7 7 4 7 4 4 7 6 10 10 8 4 5 7 4 6 7 4 5 5 7 2 9 5 6 6 6 5 5 6 6 4 11 7 6 8 3 8 7 6 8 10 7 9 6 4 6 7 9 9 12 10 10 11 10 12 6 9 6 9 9 7 10 4 7 8 8 9 8 7 9 8 
12 22 12 11 20 11 15 14 13 10 11 11 16 14 9 12 12 13 9 11 12 14 7 13 10 11 11 10 8 9 11 11 8 9 7 9 10 10 12 10 11 8 9 10 5 10 7 9 7 6 11 7 7 6 7 11 7 10 8 12 7 6 9 11 8 7 8 10 7 7 11 5 8 6 7 7 7 6 5 5 9 4 5 3 7 2 7 6 6 3 5 6 8 7 7 2 9 3 6 5 8 5 3 6 7 7 7 6 4 4 7 5 5 8 4 5 4 6 7 4 7 9 6 7 4 7 9 7 10 9 6 7 10 7 8 6 10 5 7 9 6 10 12 7 10 7 7 8 9 6 8 5 6 8 12 11 8 11 15 11 
12 15 14 11 14 8 13 10 8 11 13 12 7 12 12 13 9 9 7 11 9 8 13 12 8 11 10 8 10 9 13 8 12 5 8 11 7 11 11 7 10 9 6 7 11 7 7 10 8 10 7 6 7 2 5 7 4 7 8 9 8 9 11 8 5 6 3 6 9 7 8 6 3 7 4 5 7 5 5 3 5 4 5 3 2 5 4 6 3 5 6 8 5 8 7 6 8 4 5 6 6 4 6 9 6 4 5 5 7 4 7 5 3 4 6 6 6 7 3 4 5 6 6 4 6 6 7 7 9 8 5 5 7 4 7 6 6 4 6 8 7 7 8 7 9 6 6 6 7 4 7 6 1 7 9 12 9 8 6 11 
13 18 11 17 16 10 15 10 9 11 11 12 10 9 13 14 8 10 9 12 8 5 9 8 11 12 10 8 10 10 10 10 10 9 10 11 7 7 11 11 10 5 8 11 7 7 9 12 10 9 10 5 8 8 6 6 8 10 9 9 9 10 9 11 8 4 7 6 10 8 8 5 7 8 4 7 8 6 5 8 6 2 4 4 8 3 3 1 3 5 5 5 6 7 7 8 6 8 7 3 8 4 6 8 4 7 4 8 7 5 7 6 9 4 7 5 7 6 5 6 6 9 7 1 6 5 9 7 8 9 8 7 7 8 6 10 10 8 8 10 10 8 7 10 9 8 5 8 10 9 7 7 8 8 6 11 8 5 10 6 
12 16 16 14 17 13 12 12 10 11 14 8 11 13 12 14 11 10 7 12 10 12 9 11 10 12 7 10 11 12 9 10 10 7 9 11 3 8 9 11 7 9 12 9 11 9 6 7 8 8 9 7 7 10 7 7 5 7 6 8 9 8 6 11 9 7 8 5 6 7 7 6 7 5 10 3 9 7 8 7 6 7 5 7 6 4 5 3 5 4 5 4 5 7 7 10 7 4 5 8 7 6 6 7 7 8 6 7 5 5 7 6 10 6 7 7 8 2 7 5 6 4 7 3 5 8 9 6 9 10 6 8 6 6 8 11 9 8 8 9 5 9 8 9 11 5 5 5 9 8 12 9 8 8 9 9 11 11 9 10 
15 18 16 14 13 13 14 7 12 8 10 12 13 11 9 9 9 11 11 12 9 9 13 8 11 10 6 10 14 10 10 12 8 11 12 7 12 12 9 8 4 11 8 8 8 5 8 6 8 9 8 7 5 7 9 9 7 5 9 8 11 5 11 9 6 6 5 5 9 7 6 5 6 6 7 8 10 9 4 3 7 2 5 6 1 4 7 8 7 4 5 3 8 7 7 8 7 7 7 1 6 7 5 8 5 8 8 5 5 6 7 7 6 6 6 5 6 7 4 7 4 9 7 7 5 8 9 7 7 10 7 5 7 6 8 8 8 8 3 9 8 10 8 9 8 5 5 7 10 7 6 5 6 9 6 5 9 7 9 9 
15 18 17 17 13 15 12 12 14 9 11 14 11 7 12 9 7 9 12 10 11 8 5 12 11 7 10 12 10 16 10 13 10 10 9 9 9 12 14 11 9 11 8 9 9 7 11 10 8 7 9 6 7 6 7 10 8 9 9 7 8 6 8 8 12 5 6 7 7 9 5 7 5 5 6 5 10 5 7 6 7 7 8 8 4 3 4 8 5 7 6 5 7 7 8 7 4 8 4 7 9 6 5 8 7 8 5 7 7 8 9 8 9 6 10 5 7 6 6 5 6 7 11 7 8 10 9 7 6 9 3 8 7 6 7 9 11 5 7 9 9 9 10 11 10 5 5 8 10 5 7 5 4 4 10 8 12 9 10 12 
17 14 17 13 13 16 12 10 12 10 14 11 10 9 11 15 10 8 10 8 12 9 9 11 11 12 7 11 11 10 9 9 8 8 12 10 7 9 9 14 9 9 11 7 9 7 8 7 8 7 6 5 3 7 7 8 8 6 9 8 8 5 6 9 9 8 8 3 6 9 10 5 5 5 6 8 8 9 6 8 6 7 4 4 5 9 5 6 3 4 4 4 4 7 6 6 4 5 3 4 8 3 4 5 6 3 4 4 5 8 7 4 8 6 5 5 6 7 4 3 4 4 6 8 7 11 7 5 5 7 7 6 9 7 8 7 12 10 8 6 12 8 12 10 10 6 7 8 6 6 9 7 9 9 8 11 8 12 10 11 
15 19 16 16 15 13 17 15 12 13 13 16 13 12 13 11 11 11 9 10 10 8 11 7 9 14 7 14 10 12 8 11 7 11 8 8 7 11 10 10 6 6 10 8 7 11 8 9 9 7 7 7 7 8 8 9 9 5 8 11 5 7 7 8 9 7 6 10 10 6 6 8 7 6 6 10 8 6 6 5 4 3 8 5 7 8 5 9 8 3 5 7 5 3 3 4 8 5 5 7 5 6 6 7 5 6 5 9 6 7 4 8 8 4 6 8 5 8 5 6 10 6 8 6 7 13 7 7 6 7 6 9 8 5 7 6 10 6 8 9 10 7 10 7 9 6 7 6 6 8 8 6 11 6 8 10 13 14 9 8 
16 15 17 16 20 18 16 13 14 6 14 13 12 7 13 11 13 11 9 11 9 8 11 12 9 9 11 11 11 11 13 10 9 10 9 13 8 6 9 10 11 8 8 11 10 7 6 6 6 6 6 9 6 8 7 7 9 10 6 10 8 6 8 8 4 8 9 8 7 6 7 7 8 7 7 7 6 8 7 4 5 6 9 2 1 7 5 7 6 6 6 5 5 3 4 6 4 7 6 5 6 6 5 8 6 8 2 5 6 8 6 7 9 4 6 6 5 7 7 6 6 8 6 7 7 7 8 8 8 5 6 6 7 8 7 6 5 6 8 5 10 10 10 5 8 8 6 9 7 4 8 9 11 9 11 9 13 11 12 12 
22 17 18 20 19 16 13 15 11 12 12 15 13 14 11 11 14 16 12 13 13 13 13 13 13 9 11 14 13 12 13 13 13 8 11 13 8 10 12 12 12 11 10 13 8 8 8 12 9 10 9 8 9 8 10 8 9 8 9 12 12 9 8 9 11 13 10 7 7 8 7 11 11 10 10 10 8 7 8 5 9 7 10 7 2 6 7 6 7 7 3 8 7 4 5 2 7 8 5 8 10 8 6 9 10 9 6 5 7 7 7 6 7 8 5 5 6 5 7 7 5 7 5 5 7 5 11 8 10 9 6 8 8 9 8 6 7 7 7 8 8 9 10 7 13 9 11 8 11 10 11 10 7 7 9 7 9 13 11 11 
18 19 15 14 18 17 13 13 13 8 10 14 9 10 13 11 12 7 12 12 11 11 11 9 15 11 10 11 10 13 10 10 9 7 11 10 8 11 11 10 13 9 11 8 8 9 8 10 10 7 5 10 7 10 7 9 6 9 11 8 11 8 10 12 9 10 6 9 7 6 8 7 10 7 5 4 7 7 5 6 6 6 5 5 4 5 6 6 7 5 5 4 6 6 6 6 9 7 5 5 4 7 8 10 11 4 3 7 8 6 8 8 6 5 6 6 8 6 8 6 3 6 8 7 8 9 10 6 6 7 7 7 8 7 6 9 8 8 8 7 8 7 6 9 8 4 5 8 6 8 9 7 9 8 10 9 11 14 9 14 
17 18 12 17 18 16 18 13 14 9 12 10 13 13 15 14 11 12 11 13 11 10 9 11 14 11 13 12 10 8 9 10 11 11 11 9 11 12 11 9 9 11 12 13 10 9 11 7 7 12 13 11 5 8 9 10 8 9 12 10 9 9 7 9 10 9 9 8 8 9 8 5 8 9 7 7 6 5 11 8 6 4 6 9 6 5 7 7 6 4 4 4 7 4 7 8 7 7 6 6 7 5 7 8 8 8 6 5 8 5 7 5 8 5 8 9 7 4 7 5 4 7 5 10 8 10 6 5 6 9 9 11 8 5 3 11 10 12 10 6 17 8 11 9 10 11 8 10 10 10 9 8 10 10 11 8 12 8 10 10 
19 13 14 13 13 12 11 11 14 11 6 9 11 8 9 12 13 12 9 10 9 11 11 10 12 9 8 11 9 11 11 11 9 9 9 8 9 7 8 9 9 6 8 7 6 5 9 7 6 7 10 6 9 8 6 5 7 6 10 7 11 7 9 9 8 5 6 8 6 7 8 7 7 7 4 6 8 7 4 6 7 3 4 5 7 3 5 7 5 5 5 3 5 4 9 4 5 8 6 6 3 5 4 6 7 5 5 4 3 3 7 4 6 3 4 4 7 5 4 4 6 6 7 9 6 7 5 4 4 8 8 6 8 8 3 7 9 8 8 7 13 8 9 8 6 7 6 7 9 8 9 7 8 7 11 11 12 10 7 11 
16 15 14 14 13 15 14 13 14 14 10 10 12 12 10 14 12 13 9 12 8 8 11 10 11 11 10 11 12 12 11 10 8 9 9 9 7 8 14 9 4 10 10 9 8 7 8 7 6 9 8 7 7 6 7 6 4 7 7 10 9 9 7 6 10 7 8 6 9 7 7 5 8 10 7 9 7 5 5 8 7 5 5 5 6 5 7 6 4 2 9 6 4 4 2 3 7 5 7 7 6 4 6 6 6 8 5 6 5 2 5 7 6 1 3 5 7 9 7 2 4 8 7 4 3 7 11 7 6 9 5 7 7 9 5 7 10 8 8 8 9 7 9 8 10 6 6 8 7 8 8 8 8 9 8 7 10 8 9 6 
19 17 18 16 12 14 12 16 13 10 13 14 13 15 14 13 15 17 13 10 15 12 14 15 13 10 14 8 11 11 11 12 9 14 8 9 10 11 11 12 7 11 10 9 8 8 10 5 6 9 10 6 6 9 9 7 10 7 9 10 10 6 9 9 13 9 7 9 9 7 5 7 8 9 3 8 7 5 4 7 7 6 7 5 5 7 5 7 5 6 4 3 5 7 8 7 6 6 4 5 6 8 5 7 7 7 8 5 8 3 6 8 5 5 4 4 6 7 9 4 6 7 7 4 7 9 9 8 6 8 6 9 5 5 9 6 8 8 8 4 6 8 9 9 12 9 7 8 9 7 11 6 10 8 13 11 12 9 8 10 
21 17 15 17 14 15 12 10 11 11 15 13 15 11 13 12 12 10 11 12 12 12 8 9 7 10 8 11 10 13 11 12 8 10 11 8 8 14 10 8 6 8 10 13 8 7 10 9 6 5 8 7 7 6 10 6 9 6 7 14 8 7 9 9 6 9 5 7 7 9 7 4 10 6 6 6 5 8 4 7 9 4 7 2 4 8 7 5 6 3 3 5 5 7 4 2 6 4 7 5 6 8 4 9 7 5 6 8 3 8 10 4 9 6 7 3 6 5 6 4 4 8 4 5 3 9 9 9 7 7 4 6 7 6 7 11 11 4 8 7 7 11 13 12 8 12 8 10 4 7 8 7 5 8 11 9 13 11 10 9 
17 17 17 15 13 11 13 12 11 9 11 15 13 11 13 14 11 11 8 11 8 9 8 9 12 7 9 9 7 13 10 12 7 10 7 9 8 10 10 11 7 7 10 9 11 8 10 8 7 8 7 4 7 4 9 5 9 7 6 8 6 9 9 11 10 6 5 6 5 2 8 3 5 7 7 7 6 5 6 4 5 6 9 6 3 6 4 4 2 6 5 5 4 6 4 5 3 4 5 7 6 6 4 6 7 5 4 6 5 7 6 4 5 5 7 7 8 5 5 7 5 6 6 4 4 5 11 5 9 10 4 6 1 6 10 8 7 7 7 9 9 8 12 6 14 10 7 8 10 4 8 9 11 9 11 12 13 11 11 12 
19 11 17 13 14 12 13 12 11 8 10 14 9 9 10 13 12 10 9 11 8 7 10 8 11 9 11 8 8 12 10 11 8 10 5 10 10 7 8 10 10 5 11 10 8 7 7 6 5 8 8 4 7 9 4 8 4 9 10 12 6 5 6 8 7 5 6 7 6 7 8 4 6 4 4 7 5 9 5 7 5 5 6 5 5 5 7 5 1 2 4 6 3 5 8 5 4 3 3 7 8 7 4 5 7 7 4 6 0 2 4 5 5 5 4 8 3 5 7 6 7 5 6 4 6 9 6 6 8 7 7 5 6 7 3 5 7 10 8 5 11 10 8 10 12 7 7 8 7 11 8 10 7 9 9 9 6 13 14 13 
20 18 18 18 15 13 15 18 15 11 17 14 10 10 11 10 14 11 11 13 8 10 11 12 10 12 12 11 12 10 8 14 12 13 10 10 12 15 9 8 12 7 8 8 9 8 7 7 8 9 11 7 10 6 8 9 8 8 8 6 8 11 11 8 9 9 10 7 7 7 11 6 6 7 6 8 7 8 7 5 6 7 6 5 3 6 6 5 5 4 4 5 5 6 8 6 7 8 6 6 5 5 5 7 8 5 3 8 7 3 4 8 6 4 5 7 7 5 5 6 6 5 7 5 5 6 10 11 6 8 7 7 7 7 7 11 14 10 8 8 12 13 12 9 12 10 9 8 10 10 10 10 12 12 10 13 13 14 16 11 
16 17 16 13 14 13 14 14 14 12 12 13 10 11 12 11 11 7 12 11 9 11 9 12 10 7 11 10 9 10 12 11 8 10 9 9 11 9 6 11 9 9 12 8 8 7 7 8 10 10 9 7 6 5 8 9 8 7 5 8 5 6 5 6 10 11 5 8 5 6 8 4 7 4 4 4 7 8 4 5 7 3 5 5 3 4 4 8 6 1 4 3 5 4 6 4 5 4 3 5 4 4 3 7 5 4 5 5 4 5 6 10 7 4 3 5 7 6 7 6 6 6 6 7 6 9 9 7 8 11 8 6 9 4 10 9 9 10 10 7 8 12 8 7 9 7 6 8 8 12 7 10 10 13 15 9 8 11 12 12 
20 19 15 15 17 16 15 14 17 10 14 14 11 11 16 10 12 12 7 9 10 14 11 12 11 9 12 9 9 12 12 11 8 12 12 11 13 11 12 11 8 6 11 8 8 10 6 7 7 9 7 7 6 8 8 11 7 6 6 6 10 8 7 9 10 8 6 5 8 8 6 7 8 8 6 7 6 7 5 9 8 6 6 6 4 8 9 2 9 2 6 4 6 6 6 6 4 7 2 5 3 6 4 6 7 7 6 6 5 5 8 8 8 6 4 7 9 5 9 7 5 7 6 4 7 8 11 9 11 9 9 6 7 7 7 10 10 9 11 9 8 11 9 12 10 9 11 10 9 11 11 11 11 14 14 9 14 8 11 10 
19 17 16 14 18 16 14 13 14 14 16 14 15 10 14 14 15 12 9 14 11 10 13 13 15 12 10 10 9 12 12 9 8 11 9 11 10 10 7 10 8 9 12 9 12 8 12 9 6 10 7 10 7 7 8 9 7 14 9 9 8 8 9 10 8 9 8 8 7 7 8 6 8 8 4 6 9 11 11 10 6 7 3 6 7 4 3 6 5 3 4 2 9 6 7 6 6 6 5 3 6 6 7 8 7 9 7 5 8 8 11 8 10 8 5 5 6 8 8 4 7 7 6 8 7 9 7 6 9 8 9 7 9 6 10 5 9 8 11 8 11 14 12 10 12 8 12 12 9 10 11 11 12 15 13 11 11 10 15 12 
17 14 16 18 19 14 16 8 14 10 11 11 17 7 9 9 14 11 8 11 8 7 9 10 12 9 8 9 8 13 5 10 6 10 8 13 9 13 11 8 7 12 9 11 8 10 8 4 7 7 8 7 6 6 7 9 8 7 10 8 6 9 4 8 9 5 5 3 6 7 5 3 6 3 4 10 6 7 8 6 2 4 5 5 1 4 8 3 3 5 3 4 6 5 3 8 7 6 2 6 6 6 1 5 7 7 9 8 5 6 8 5 7 1 5 4 3 6 3 6 4 8 9 10 9 9 12 6 9 7 6 11 9 8 4 10 9 11 7 8 9 10 11 11 7 13 10 6 11 7 8 11 6 12 11 10 12 9 12 9 
18 13 14 20 13 13 11 12 14 13 16 15 14 12 10 16 15 16 10 11 14 9 11 12 13 8 7 7 12 15 13 11 9 8 7 11 10 9 10 9 10 8 12 7 12 10 7 5 6 8 8 6 8 5 5 10 7 9 4 9 5 7 10 10 6 8 8 8 7 5 7 5 2 4 5 7 4 7 8 9 6 4 7 3 3 5 6 7 4 4 3 4 5 6 7 5 5 7 5 3 4 7 4 6 6 10 7 7 7 7 9 8 8 4 8 3 5 8 6 9 7 6 8 7 7 8 10 8 10 8 6 9 10 10 9 5 8 10 9 6 12 14 13 9 11 10 10 11 12 8 10 6 6 8 13 11 12 8 6 9 
17 13 13 18 17 13 18 14 10 17 13 16 14 9 8 12 16 14 11 13 12 14 11 10 11 12 8 11 10 11 12 12 7 11 10 10 9 7 12 12 6 7 10 9 11 4 9 9 6 7 8 8 10 8 6 7 10 10 9 11 7 10 10 12 10 9 8 3 9 5 6 5 5 3 8 4 12 8 7 7 8 5 8 4 4 8 6 6 3 4 6 5 7 6 7 4 5 5 4 4 5 8 2 5 4 6 5 5 7 5 8 10 8 4 5 8 8 8 9 8 8 9 10 7 6 9 11 8 6 9 11 6 13 8 9 9 15 10 8 8 12 11 10 10 13 9 10 7 12 11 8 10 9 9 15 12 10 12 6 12 
18 17 19 14 15 17 12 10 15 10 15 15 13 11 10 16 15 17 15 15 11 10 11 13 16 13 10 10 9 11 13 15 7 11 13 11 9 9 10 13 7 9 13 7 10 5 6 6 6 8 8 8 9 9 7 7 6 12 7 7 10 9 11 8 8 11 7 7 7 8 10 10 6 7 3 11 8 7 5 7 7 4 6 3 7 5 8 4 7 7 2 6 6 8 7 5 7 5 1 6 7 7 6 7 9 4 8 8 8 5 9 8 10 7 6 8 8 7 5 8 6 8 10 10 11 15 8 6 7 6 10 9 8 10 10 9 12 10 10 10 10 11 12 11 8 11 10 8 13 8 9 7 13 7 11 11 13 12 12 16 
21 21 19 17 16 22 20 12 12 15 15 13 19 17 18 15 20 19 15 15 11 13 9 15 16 12 13 12 11 12 12 13 12 9 12 10 11 12 11 12 13 15 10 9 11 9 9 10 10 11 12 8 9 10 7 11 8 11 10 10 10 10 12 11 12 10 8 9 9 6 10 11 9 6 6 11 10 13 7 7 7 8 7 7 6 7 7 7 6 6 7 8 5 7 4 6 7 8 5 6 8 10 7 9 8 6 10 9 9 9 9 6 7 6 7 7 7 8 5 7 7 10 12 9 8 10 9 9 9 8 6 10 11 8 13 11 11 15 12 13 13 9 7 12 10 13 10 10 10 13 11 11 10 12 14 9 14 14 13 11 
23 21 16 19 16 13 19 14 15 11 15 14 15 15 17 12 14 15 14 16 13 12 15 14 12 14 13 16 11 13 15 12 11 12 11 13 13 11 10 12 12 11 10 7 10 10 12 9 10 12 6 8 8 9 9 8 7 10 9 9 8 8 8 8 7 12 6 10 8 7 9 6 8 9 10 9 8 8 8 8 7 7 5 4 4 8 6 8 7 4 8 7 6 9 5 8 10 4 5 5 6 7 6 10 10 7 8 10 6 8 8 10 8 4 8 10 10 8 8 5 9 6 5 10 8 7 11 8 12 9 6 9 8 7 8 10 10 8 6 7 7 13 11 12 14 10 11 12 10 12 11 12 13 10 13 11 13 15 7 7 
24 18 16 17 15 16 17 18 16 17 18 11 14 14 16 13 11 18 11 15 15 11 11 14 15 14 9 12 11 13 11 10 10 14 9 10 12 11 8 11 9 9 13 5 7 11 9 8 10 8 9 9 8 8 9 8 6 5 9 12 12 8 7 10 8 12 9 8 7 7 9 7 9 7 6 8 7 7 9 7 6 3 4 7 5 7 7 7 5 5 4 7 4 6 7 5 7 3 5 6 8 6 6 10 10 7 10 5 6 6 9 7 11 7 7 7 8 6 4 6 9 8 7 10 10 6 12 10 10 8 7 6 10 10 7 9 12 8 8 8 8 11 13 11 11 14 10 12 14 10 12 12 12 13 18 10 11 11 9 10 
20 18 17 17 19 13 18 15 20 18 19 17 13 15 13 19 16 13 9 13 16 11 14 13 17 11 13 13 14 13 12 11 10 12 13 11 12 12 11 12 15 7 12 10 12 15 11 8 10 9 11 9 13 8 9 8 8 10 12 9 10 6 9 7 7 8 10 10 6 12 11 8 9 10 9 14 13 5 8 13 7 8 8 2 6 9 10 7 7 4 4 6 8 8 5 5 7 5 6 6 7 8 8 7 8 10 9 7 7 9 10 10 12 6 6 9 9 9 5 7 9 8 8 10 10 11 12 12 9 13 8 10 7 10 9 9 10 11 9 10 10 9 12 9 12 12 10 10 14 9 10 12 14 10 12 12 12 13 15 11 
22 20 16 18 16 14 15 14 17 18 16 14 13 12 13 14 17 14 14 16 15 12 12 14 15 15 15 13 13 13 12 14 12 14 11 11 14 9 10 14 14 11 9 7 12 13 7 9 7 9 11 13 9 10 7 7 9 7 10 10 8 10 8 11 8 11 8 6 7 7 11 10 12 11 8 10 12 9 9 8 9 6 9 7 8 9 11 10 4 6 6 5 8 10 9 7 8 9 4 9 6 10 11 11 10 11 8 8 5 8 8 10 12 10 9 10 7 11 7 5 8 9 9 10 9 9 12 11 10 11 7 5 9 8 16 9 10 12 14 16 13 13 13 11 12 12 12 13 12 7 11 12 11 13 15 10 13 15 11 15 
19 21 20 14 16 15 13 17 19 14 15 13 15 18 13 17 13 17 12 18 12 11 14 12 14 11 14 14 16 16 8 15 12 12 13 8 14 12 14 11 12 13 15 9 14 9 10 8 13 8 10 10 10 9 10 12 10 12 13 10 7 10 12 9 9 8 7 8 9 10 8 3 8 7 8 8 9 12 12 8 7 7 10 2 5 8 7 8 6 3 4 6 7 11 9 7 8 7 4 9 5 11 5 8 6 10 12 10 10 9 9 5 11 6 8 11 9 9 5 9 5 8 6 7 9 12 12 8 12 9 6 6 4 5 8 7 11 8 11 12 12 12 11 9 13 14 11 11 11 10 15 10 9 13 11 13 15 11 10 11 
23 17 16 17 14 14 14 15 16 13 14 16 13 12 15 15 16 14 11 16 11 14 11 14 16 11 8 11 11 14 14 10 13 11 9 11 12 12 11 13 13 10 7 8 9 9 10 12 8 12 6 9 8 6 11 7 10 8 14 12 10 9 11 12 9 11 6 8 8 5 7 6 8 7 9 7 6 7 8 10 9 7 7 6 8 6 3 7 8 4 4 7 10 8 5 6 5 8 5 7 7 9 6 10 8 12 10 10 5 6 8 6 9 4 6 8 7 7 10 9 10 9 9 9 11 10 9 9 5 10 10 6 8 7 7 6 10 14 12 9 11 13 11 9 13 14 14 13 12 8 11 9 6 7 16 11 10 12 9 9 
20 21 17 14 21 19 18 16 15 12 17 11 11 12 17 15 14 13 13 15 13 11 13 13 16 11 11 11 14 12 8 11 13 11 12 11 13 11 12 9 13 10 15 13 11 9 10 8 7 7 7 10 6 6 9 8 13 9 14 11 12 8 11 11 14 11 10 6 10 5 7 7 9 8 10 9 12 9 11 7 7 7 8 7 6 6 5 6 1 4 4 7 5 4 8 6 9 7 8 6 5 8 6 7 11 11 12 12 8 8 9 6 10 4 9 9 9 8 8 9 8 10 8 7 14 12 14 10 9 9 6 6 11 11 6 14 10 9 11 11 13 13 12 15 8 16 16 14 14 15 12 11 11 14 13 11 13 12 9 13 
22 22 27 15 27 15 15 14 14 16 16 16 14 13 17 12 15 12 12 18 12 14 10 16 19 14 14 12 11 11 13 16 11 15 12 9 14 12 13 10 15 11 12 11 12 10 9 11 10 10 10 10 11 12 7 8 8 9 9 12 14 13 14 11 10 6 12 9 13 9 7 11 8 7 9 10 9 10 7 5 10 7 9 6 9 10 7 8 7 4 4 6 6 7 6 7 9 7 6 5 7 7 9 8 9 9 8 9 9 9 14 7 6 7 8 7 10 9 8 9 7 7 7 10 13 11 14 9 8 14 8 13 10 15 10 7 14 15 11 12 11 12 15 15 12 10 12 13 13 11 12 11 12 17 18 12 14 15 11 13 
22 19 21 22 23 20 19 16 16 13 17 16 14 16 15 18 16 11 13 15 9 11 12 15 12 13 15 11 13 16 16 15 13 14 11 15 10 15 13 16 9 14 12 8 11 9 10 9 12 12 10 8 10 10 11 8 10 9 11 11 12 9 12 12 11 10 12 12 10 6 6 11 12 9 7 11 13 9 11 6 5 7 7 7 8 10 7 9 5 6 3 8 7 8 7 9 10 11 7 6 9 7 10 9 8 8 10 10 8 10 8 7 10 7 9 13 9 8 7 8 6 9 13 6 10 10 15 13 10 13 12 11 8 15 10 9 13 12 13 10 11 10 13 14 12 14 9 9 14 13 11 16 12 16 15 15 16 14 15 8 
19 13 19 16 19 14 15 16 16 18 13 13 14 18 14 13 15 12 11 15 10 12 13 14 12 17 13 12 12 15 12 9 11 13 13 11 14 12 12 13 15 12 10 8 9 10 8 9 8 6 6 5 9 10 9 8 8 6 11 9 8 7 10 10 11 10 11 11 7 7 7 8 6 8 6 10 9 9 8 8 4 7 8 8 5 8 11 7 6 4 6 6 7 6 7 7 8 8 7 9 4 7 7 8 10 6 9 9 4 8 9 12 11 7 10 10 10 11 10 8 9 11 8 7 10 11 14 10 7 9 13 12 10 7 7 9 13 11 9 10 9 10 11 14 11 11 10 9 13 14 12 8 8 12 10 9 19 8 11 10 
18 19 20 22 18 20 16 11 21 15 21 18 14 16 16 17 13 16 14 15 13 15 12 15 14 16 14 11 12 15 9 11 13 15 14 11 11 12 11 15 13 13 9 8 13 9 9 11 9 13 13 12 7 9 12 4 5 10 12 12 8 13 11 9 12 13 10 9 8 9 6 9 10 8 7 11 7 7 11 9 6 5 9 3 5 2 5 6 5 7 6 8 9 8 7 7 10 6 6 12 7 10 11 10 7 7 9 8 6 9 10 12 11 6 6 8 9 7 7 9 8 9 14 6 10 12 11 10 11 8 12 11 8 7 10 9 12 16 11 10 8 13 15 15 13 15 11 10 11 15 12 13 11 16 11 13 20 11 15 9 
25 22 15 15 20 20 14 14 20 18 19 19 16 13 16 10 12 19 17 15 13 15 16 17 17 12 15 13 12 13 13 11 9 14 13 10 11 11 13 13 9 13 9 10 12 9 12 10 9 11 14 9 7 9 8 8 12 10 10 9 11 12 10 11 10 9 11 9 11 8 12 9 7 7 6 10 8 7 9 7 7 10 7 6 7 10 11 6 4 7 8 8 10 6 8 9 7 8 7 6 8 12 10 9 11 8 9 8 6 8 11 8 13 8 9 9 8 11 7 9 8 10 10 8 12 8 12 8 9 10 7 8 8 11 10 11 13 12 10 8 15 13 12 14 13 14 11 9 13 15 11 10 11 12 16 11 13 12 15 14 
19 18 18 16 16 18 18 16 15 19 18 18 14 15 17 16 17 15 15 17 11 14 13 17 21 11 13 15 12 14 11 16 10 10 10 9 12 13 9 13 9 11 13 11 11 11 9 9 8 10 10 8 8 9 9 12 11 10 6 6 9 12 12 6 9 9 8 8 10 6 8 5 11 7 8 12 9 6 9 11 9 12 10 5 7 6 7 5 6 4 7 9 7 10 8 6 6 8 8 7 8 7 4 8 6 12 11 7 8 9 6 8 4 6 5 6 7 8 7 8 7 8 11 7 11 9 11 11 10 8 10 9 12 10 12 13 11 12 9 11 13 8 15 13 12 15 8 10 11 13 12 10 9 16 13 11 20 13 13 10 
20 20 22 17 21 16 16 15 16 17 16 16 11 18 15 16 12 19 12 15 9 10 16 16 15 14 14 14 14 12 10 13 12 13 10 15 11 16 14 11 13 10 13 10 14 11 8 10 12 12 13 12 12 9 9 9 11 8 11 8 10 8 8 12 9 10 8 11 11 8 8 10 6 9 5 11 10 7 12 14 7 7 8 7 7 7 5 6 6 6 3 8 12 9 6 8 7 6 10 10 8 9 8 11 11 11 10 9 8 10 8 9 6 5 5 8 7 12 9 5 10 9 10 10 13 8 13 13 10 12 9 9 13 10 10 9 10 13 10 5 12 16 13 11 14 15 12 14 9 13 13 14 16 12 12 13 15 13 17 13 
16 20 17 18 21 17 19 17 14 17 19 18 12 24 15 18 20 14 16 19 11 14 18 16 18 13 12 17 8 12 16 16 14 14 13 11 12 15 14 17 13 15 13 13 14 12 12 10 12 12 13 12 13 11 11 12 12 11 10 9 9 12 13 13 9 10 12 10 11 5 14 10 9 9 9 12 9 10 12 8 7 5 11 8 7 9 8 8 5 8 4 5 8 8 9 7 7 8 7 11 7 10 6 9 10 10 11 11 9 8 10 9 13 11 5 7 9 11 12 8 9 10 8 11 11 11 11 10 10 11 9 8 11 13 11 14 9 9 10 10 7 12 10 12 14 16 14 16 13 12 14 8 11 14 11 15 18 12 17 13 
19 20 17 17 23 13 19 16 18 16 21 17 18 16 19 14 14 17 13 19 15 14 14 12 14 13 16 15 13 17 14 15 11 18 13 16 13 13 10 12 10 14 18 11 10 11 12 12 9 10 12 12 14 11 10 9 9 9 10 8 11 11 9 10 13 9 7 11 8 7 9 8 10 8 5 9 7 9 10 8 6 3 10 6 5 6 7 7 6 10 5 8 7 8 5 5 6 10 7 6 7 8 9 7 8 10 9 13 9 8 8 7 8 6 8 7 9 10 8 8 9 10 9 8 11 11 11 6 11 8 6 10 10 12 11 13 14 12 8 7 8 13 9 10 14 14 12 14 17 13 13 9 9 15 16 16 15 15 17 16 
24 20 16 19 23 19 17 16 18 16 17 19 20 16 21 18 20 15 14 16 11 14 17 15 16 17 14 14 18 15 14 16 13 13 12 14 14 16 11 13 15 11 12 8 14 12 10 13 12 12 13 11 11 13 9 10 8 8 10 8 14 15 11 9 11 11 11 10 8 7 13 10 9 9 8 10 7 8 8 11 6 6 9 8 7 12 7 7 4 6 5 6 8 9 7 8 7 12 9 7 6 11 8 13 10 11 8 9 8 9 11 7 12 10 7 9 13 13 11 10 7 6 10 10 12 12 11 12 12 11 9 10 10 9 10 15 7 11 10 8 13 10 13 15 12 15 10 8 15 15 11 7 12 16 12 9 15 12 16 18 
20 20 20 24 18 16 20 19 17 16 16 19 18 15 18 17 22 16 14 16 16 16 14 13 18 15 14 15 14 13 13 15 14 15 13 15 12 15 16 15 12 12 11 13 15 13 9 16 13 11 12 11 12 2 10 10 6 11 9 11 12 12 10 10 13 10 10 8 10 10 7 8 8 9 7 13 12 9 6 8 8 10 8 7 8 12 5 5 5 7 8 5 8 7 6 8 10 9 7 8 7 12 12 10 9 10 10 12 9 5 10 10 12 10 7 8 10 13 11 9 9 13 10 10 7 9 13 14 13 9 11 14 14 14 9 13 9 11 9 11 14 14 13 12 15 12 9 12 13 12 12 12 14 12 13 13 15 12 15 18 
22 24 22 19 16 19 17 14 18 16 18 17 14 20 19 19 16 16 12 18 14 11 17 14 17 18 16 12 16 15 13 16 14 13 13 14 14 13 13 14 13 15 13 11 15 11 11 9 11 17 14 9 15 9 11 8 10 9 14 12 14 13 8 13 12 12 11 15 12 14 7 9 9 7 10 12 12 11 9 9 9 7 9 8 8 9 4 7 7 6 6 5 9 7 8 11 6 7 9 10 6 15 11 11 9 11 9 11 11 8 10 10 12 8 8 13 9 10 7 7 9 13 9 13 9 13 10 14 12 11 11 8 8 9 10 13 12 13 10 10 11 15 16 11 13 14 12 13 15 13 8 14 10 17 17 14 16 17 12 20 
22 22 21 17 27 16 19 16 19 16 20 18 19 11 19 20 16 19 9 16 16 16 16 13 19 16 14 10 10 15 13 14 12 15 11 14 15 12 14 13 16 14 11 10 12 6 10 12 12 14 11 12 12 13 12 14 6 6 10 12 13 15 11 6 11 10 7 11 10 11 6 9 7 7 9 9 7 8 11 8 8 6 7 8 6 4 7 10 4 9 7 7 8 7 5 11 7 8 7 6 6 11 8 8 11 11 8 9 9 6 10 8 6 6 7 6 9 13 7 6 8 13 9 12 12 15 12 14 12 13 12 10 12 10 11 12 14 11 10 11 12 13 13 15 11 16 11 15 10 13 9 11 9 13 16 13 21 14 11 17 


